<svg width="80" height="80" viewBox="0 0 80 80" fill="none" xmlns="http://www.w3.org/2000/svg">
<path d="M40.0001 68.3335C40.9445 68.3335 41.7367 68.0135 42.3767 67.3735C43.0145 66.7357 43.3334 65.9446 43.3334 65.0002C43.3334 64.0557 43.0145 63.2646 42.3767 62.6268C41.7367 61.9868 40.9445 61.6668 40.0001 61.6668C39.0556 61.6668 38.2645 61.9868 37.6267 62.6268C36.9867 63.2646 36.6667 64.0557 36.6667 65.0002C36.6667 65.9446 36.9867 66.7357 37.6267 67.3735C38.2645 68.0135 39.0556 68.3335 40.0001 68.3335ZM16.6667 76.6668V3.3335H63.3334V76.6668H16.6667ZM23.3334 53.3335H56.6667V20.0002H23.3334V53.3335Z" fill="black"/>
</svg>
